<svg width="39" height="36" viewBox="0 0 39 36" fill="none" xmlns="http://www.w3.org/2000/svg">
<path fill-rule="evenodd" clip-rule="evenodd" d="M14.2873 6.36556H36.4932L23.304 15.4072L14.3326 9.25697C14.6742 8.34236 14.6771 7.30853 14.2873 6.36556ZM8.47973 11.6134L11.7165 9.6426C12.677 9.05775 12.9958 7.80994 12.4335 6.83595L9.51137 1.7747C9.21161 1.25541 8.75786 0.921345 8.17301 0.789314C7.58809 0.657204 7.03497 0.763845 6.54106 1.10392L1.212 4.77299C-1.32464 13.7108 10.0745 33.0608 18.817 35.2656L24.659 32.4851C25.2004 32.2274 25.5694 31.8017 25.7475 31.2291C25.9255 30.6565 25.8631 30.0966 25.5632 29.5773L22.6411 24.516C22.0789 23.542 20.8388 23.1942 19.852 23.7337L16.5269 25.5513C13.2386 22.6269 9.36833 15.9234 8.47973 11.6134ZM38.106 7.52838L23.8314 17.3142C23.4974 17.5421 23.0682 17.5243 22.7579 17.3013L13.2813 10.8048C13.1018 10.9666 12.9051 11.1141 12.6915 11.2442L10.6443 12.4906C11.7199 15.9617 14.3812 20.5712 16.8495 23.2381L18.9525 22.0885C20.8316 21.0613 23.1941 21.7239 24.2648 23.5785L26.077 26.7173H36.6323C37.4657 26.7173 38.1476 26.0354 38.1476 25.202V7.88088C38.1477 7.75963 38.1332 7.64158 38.106 7.52838Z" fill="white"/>
</svg>