<svg width="41" height="40" viewBox="0 0 41 40" fill="none" xmlns="http://www.w3.org/2000/svg">
<path d="M19.9251 10.3688L23.9126 6.25L20.9376 7.0875C19.5395 7.49107 18.3522 8.42074 17.6251 9.68125L7.69381 26.875C7.27943 27.5927 7.16713 28.4457 7.38163 29.2462C7.59612 30.0468 8.11983 30.7293 8.83756 31.1438L18.3126 36.6187C18.1059 36.1041 17.9998 35.5546 18.0001 35V15.1437C17.999 13.3628 18.6891 11.651 19.9251 10.3688Z" fill="white"/>
<path d="M3.53114 25.4063L6.03114 27.9063C6.11101 27.3206 6.30874 26.7572 6.61239 26.25C8.06864 23.75 14.5061 12.5813 17.9999 6.5813C17.6124 6.9063 18.3749 6.18755 3.56239 20.9563C3.26555 21.2449 3.02903 21.5897 2.86657 21.9706C2.70411 22.3514 2.61895 22.7607 2.61604 23.1748C2.61314 23.5888 2.69254 23.9993 2.84963 24.3824C3.00672 24.7655 3.23838 25.1135 3.53114 25.4063Z" fill="white"/>
<path d="M25.875 21.9062C26.0826 21.9062 26.2856 21.8446 26.4583 21.7292C26.631 21.6138 26.7656 21.4498 26.845 21.258C26.9245 21.0661 26.9453 20.855 26.9048 20.6513C26.8643 20.4476 26.7643 20.2605 26.6174 20.1137C26.4706 19.9668 26.2835 19.8668 26.0798 19.8263C25.8761 19.7858 25.665 19.8066 25.4731 19.8861C25.2813 19.9656 25.1173 20.1001 25.0019 20.2728C24.8865 20.4455 24.825 20.6485 24.825 20.8562C24.8266 21.1341 24.9377 21.4002 25.1343 21.5968C25.3309 21.7934 25.597 21.9045 25.875 21.9062Z" fill="white"/>
<path d="M29.0938 27.05C29.0938 27.2577 29.1553 27.4607 29.2707 27.6334C29.3861 27.806 29.5501 27.9406 29.7419 28.0201C29.9338 28.0995 30.1449 28.1203 30.3486 28.0798C30.5523 28.0393 30.7394 27.9393 30.8862 27.7925C31.0331 27.6456 31.1331 27.4585 31.1736 27.2548C31.2141 27.0512 31.1933 26.84 31.1138 26.6482C31.0344 26.4563 30.8998 26.2923 30.7271 26.177C30.5544 26.0616 30.3514 26 30.1438 26C29.8653 26 29.5982 26.1106 29.4013 26.3075C29.2044 26.5045 29.0938 26.7715 29.0938 27.05Z" fill="white"/>
<path d="M22.375 38.125H34.25C35.0788 38.125 35.8737 37.7957 36.4597 37.2097C37.0458 36.6236 37.375 35.8288 37.375 35V15.1437C37.3725 13.6911 36.8081 12.2958 35.8 11.25L32.2937 7.61245C31.5102 8.46532 30.5534 9.14083 29.4875 9.5937C29.4107 9.80965 29.276 10.0003 29.0982 10.1449C28.9204 10.2895 28.7062 10.3824 28.4791 10.4134C28.2521 10.4445 28.0208 10.4125 27.8107 10.321C27.6006 10.2295 27.4196 10.082 27.2877 9.8946C27.1557 9.7072 27.0778 9.48714 27.0625 9.25846C27.0472 9.02979 27.0951 8.8013 27.2008 8.59799C27.3066 8.39467 27.4663 8.22435 27.6623 8.10566C27.8584 7.98696 28.0833 7.92444 28.3125 7.92495C28.4859 7.92623 28.6571 7.96357 28.8153 8.03458C28.9734 8.1056 29.1151 8.20874 29.2313 8.33745C29.6153 8.16516 29.9816 7.95584 30.325 7.71245C30.7185 7.41675 31.0865 7.08852 31.425 6.7312C32.5934 5.37608 33.3559 3.71889 33.625 1.94995L32.375 1.7937C32.1235 3.26499 31.4899 4.64437 30.5375 5.7937C30.2463 5.49414 29.8979 5.25603 29.5131 5.09343C29.1282 4.93083 28.7147 4.84705 28.2969 4.84705C27.8791 4.84705 27.4655 4.93083 27.0807 5.09343C26.6958 5.25603 26.3475 5.49414 26.0562 5.7937L20.825 11.25C19.8169 12.2958 19.2525 13.6911 19.25 15.1437V35C19.25 35.8288 19.5792 36.6236 20.1653 37.2097C20.7513 37.7957 21.5462 38.125 22.375 38.125ZM32.4438 27.05C32.4438 27.5048 32.3089 27.9495 32.0561 28.3278C31.8034 28.706 31.4442 29.0008 31.0239 29.1749C30.6037 29.349 30.1412 29.3945 29.695 29.3058C29.2489 29.217 28.8391 28.998 28.5174 28.6763C28.1957 28.3546 27.9767 27.9448 27.8879 27.4987C27.7992 27.0525 27.8447 26.59 28.0188 26.1698C28.1929 25.7495 28.4877 25.3903 28.8659 25.1376C29.2442 24.8848 29.6889 24.75 30.1438 24.75C30.7537 24.75 31.3388 24.9923 31.7701 25.4236C32.2014 25.8549 32.4438 26.44 32.4438 27.05ZM30.7375 18.925L31.75 19.675L25.0937 28.9875L24.075 28.2562L30.7375 18.925ZM25.875 18.5375C26.3299 18.5375 26.7746 18.6723 27.1528 18.9251C27.531 19.1778 27.8258 19.537 27.9999 19.9573C28.174 20.3776 28.2196 20.84 28.1308 21.2862C28.0421 21.7323 27.823 22.1421 27.5013 22.4638C27.1797 22.7855 26.7699 23.0045 26.3237 23.0933C25.8776 23.182 25.4151 23.1365 24.9948 22.9624C24.5746 22.7883 24.2153 22.4935 23.9626 22.1153C23.7099 21.737 23.575 21.2923 23.575 20.8375C23.5799 20.2307 23.8244 19.6505 24.2552 19.2232C24.686 18.7959 25.2682 18.5562 25.875 18.5562V18.5375Z" fill="white"/>
</svg>