<svg width="25" height="24" viewBox="0 0 25 24" fill="none" xmlns="http://www.w3.org/2000/svg">
<path d="M16.7188 5.62488H21.2286L16.0156 0.411865V4.92176C16.0156 5.30969 16.3308 5.62488 16.7188 5.62488Z" fill="white" fill-opacity="0.5"/>
<path d="M5.46875 24H19.5312C20.6944 24 21.6406 23.0538 21.6406 21.8906V7.03125H16.7188C15.5556 7.03125 14.6094 6.08503 14.6094 4.92188V0H5.46875C4.30559 0 3.35938 0.946219 3.35938 2.10938V21.8906C3.35938 23.0538 4.30559 24 5.46875 24ZM9.6875 11.2969H16.7188C17.1074 11.2969 17.4219 11.6114 17.4219 12C17.4219 12.3886 17.1074 12.7031 16.7188 12.7031H9.6875C9.29886 12.7031 8.98438 12.3886 8.98438 12C8.98438 11.6114 9.29886 11.2969 9.6875 11.2969ZM9.6875 14.1094H16.7188C17.1074 14.1094 17.4219 14.4239 17.4219 14.8125C17.4219 15.2011 17.1074 15.5156 16.7188 15.5156H9.6875C9.29886 15.5156 8.98438 15.2011 8.98438 14.8125C8.98438 14.4239 9.29886 14.1094 9.6875 14.1094ZM9.6875 16.9219H16.7188C17.1074 16.9219 17.4219 17.2364 17.4219 17.625C17.4219 18.0136 17.1074 18.3281 16.7188 18.3281H9.6875C9.29886 18.3281 8.98438 18.0136 8.98438 17.625C8.98438 17.2364 9.29886 16.9219 9.6875 16.9219ZM6.875 11.2969C7.26331 11.2969 7.57812 11.6117 7.57812 12C7.57812 12.3883 7.26331 12.7031 6.875 12.7031C6.48669 12.7031 6.17188 12.3883 6.17188 12C6.17188 11.6117 6.48669 11.2969 6.875 11.2969ZM6.875 14.1094C7.26331 14.1094 7.57812 14.4242 7.57812 14.8125C7.57812 15.2008 7.26331 15.5156 6.875 15.5156C6.48669 15.5156 6.17188 15.2008 6.17188 14.8125C6.17188 14.4242 6.48669 14.1094 6.875 14.1094ZM6.875 16.9219C7.26331 16.9219 7.57812 17.2367 7.57812 17.625C7.57812 18.0133 7.26331 18.3281 6.875 18.3281C6.48669 18.3281 6.17188 18.0133 6.17188 17.625C6.17188 17.2367 6.48669 16.9219 6.875 16.9219Z" fill="white" fill-opacity="0.5"/>
</svg>