<svg width="25" height="24" viewBox="0 0 25 24" fill="none" xmlns="http://www.w3.org/2000/svg">
<g clip-path="url(#clip0_331_436)">
<path d="M23.8527 10.4388C23.8521 10.4383 23.8516 10.4377 23.851 10.4372L14.0609 0.647461C13.6436 0.22998 13.0888 0 12.4986 0C11.9085 0 11.3537 0.229797 10.9362 0.647278L1.15124 10.4321C1.14794 10.4354 1.14465 10.4388 1.14135 10.4421C0.284418 11.304 0.285883 12.7024 1.14556 13.5621C1.53832 13.955 2.05706 14.1826 2.61169 14.2064C2.63421 14.2086 2.65692 14.2097 2.6798 14.2097H3.07V21.4144C3.07 22.84 4.22997 24 5.656 24H9.4862C9.87438 24 10.1893 23.6852 10.1893 23.2969V17.6484C10.1893 16.9979 10.7185 16.4687 11.3691 16.4687H13.6282C14.2788 16.4687 14.808 16.9979 14.808 17.6484V23.2969C14.808 23.6852 15.1227 24 15.5111 24H19.3413C20.7673 24 21.9273 22.84 21.9273 21.4144V14.2097H22.2891C22.8791 14.2097 23.4339 13.9799 23.8516 13.5624C24.7121 12.7013 24.7125 11.3005 23.8527 10.4388Z" fill="white" fill-opacity="0.5"/>
</g>
<defs>
<clipPath id="clip0_331_436">
<rect width="24" height="24" fill="white" transform="translate(0.5)"/>
</clipPath>
</defs>
</svg>