<svg width="25" height="24" viewBox="0 0 25 24" fill="none" xmlns="http://www.w3.org/2000/svg">
<g clip-path="url(#clip0_331_440)">
<path d="M19.0867 12.9824V16.3223L20.975 15.9785V12.6387L19.0867 12.9824Z" fill="white"/>
<path d="M24.2475 1.00116C24.0875 0.867517 23.8766 0.811502 23.6714 0.848627L16.2641 2.18484L8.85949 0.848627C8.77741 0.833908 8.69627 0.834845 8.61845 0.847923C8.61555 0.848111 8.61316 0.848017 8.6096 0.848627L1.23242 2.17987L1.34923 2.21184L1.43042 2.23406L8.32314 4.12054C8.32656 4.12148 8.32947 4.12265 8.33275 4.12364C8.62619 4.20839 8.84102 4.47848 8.84102 4.7992V19.159L16.1404 20.4762C16.182 20.4837 16.2238 20.4874 16.2654 20.4874C16.3073 20.4874 16.349 20.4835 16.39 20.4761C16.3901 20.4761 16.3903 20.4762 16.3904 20.4762L23.9212 19.1172C24.2563 19.0568 24.5 18.7651 24.5 18.4247V1.54106C24.5 1.33261 24.4075 1.13489 24.2475 1.00116ZM10.0316 11.6841C10.1006 11.3016 10.4664 11.0478 10.849 11.1165L14.0257 11.6893C14.4081 11.7583 14.6622 12.1242 14.5933 12.5067C14.5319 12.8469 14.2355 13.0856 13.9016 13.0856C13.8601 13.0856 13.8182 13.0819 13.7759 13.0743L10.5992 12.5014C10.2168 12.4324 9.96269 12.0665 10.0316 11.6841ZM10.1511 13.8045C10.22 13.422 10.5858 13.1681 10.9684 13.2369L14.1451 13.8097C14.5275 13.8787 14.7817 14.2446 14.7127 14.6271C14.6513 14.9673 14.355 15.206 14.0211 15.206C13.9796 15.206 13.9376 15.2023 13.8954 15.1947L10.7187 14.6218C10.3363 14.5529 10.0821 14.1869 10.1511 13.8045ZM14.8321 16.7475C14.7708 17.0877 14.4744 17.3264 14.1405 17.3264C14.099 17.3264 14.0571 17.3227 14.0148 17.3151L10.8381 16.7423C10.4557 16.6734 10.2016 16.3075 10.2705 15.925C10.3395 15.5426 10.7053 15.2884 11.0879 15.3573L14.2645 15.9302C14.6469 15.9991 14.9011 16.3651 14.8321 16.7475ZM14.9594 9.88723C14.9594 10.0975 14.8654 10.2967 14.7031 10.4304C14.5761 10.535 14.4176 10.591 14.2558 10.591C14.2109 10.591 14.1658 10.5867 14.121 10.5779L10.6094 9.89248C10.279 9.82803 10.0406 9.53848 10.0406 9.20188V4.53464C10.0406 4.32735 10.132 4.13057 10.2904 3.99689C10.4489 3.8632 10.6581 3.80611 10.8625 3.84103L14.3741 4.44014C14.7121 4.49779 14.9594 4.79085 14.9594 5.13374V9.88723ZM18.2571 5.11959L21.5526 4.51959C21.9346 4.45017 22.3013 4.70343 22.3709 5.08584C22.4405 5.46815 22.187 5.83452 21.8047 5.90413L18.5091 6.50413C18.4665 6.51187 18.4241 6.51562 18.3823 6.51562C18.0488 6.51562 17.7527 6.27763 17.6908 5.93788C17.6212 5.55557 17.8747 5.1892 18.2571 5.11959ZM18.2571 7.11866L21.5526 6.51866C21.9346 6.44938 22.3013 6.70255 22.3709 7.08491C22.4405 7.46722 22.187 7.8336 21.8047 7.90321L18.5091 8.50321C18.4665 8.51094 18.4241 8.51469 18.3823 8.51469C18.0488 8.51469 17.7527 8.27671 17.6908 7.93696C17.6212 7.55464 17.8747 7.18827 18.2571 7.11866ZM18.2571 9.11778L21.5526 8.51778C21.9346 8.44827 22.3013 8.70163 22.3709 9.08403C22.4405 9.46634 22.187 9.83272 21.8047 9.90233L18.5091 10.5023C18.4665 10.5101 18.4241 10.5138 18.3823 10.5138C18.0488 10.5138 17.7527 10.2758 17.6908 9.93608C17.6212 9.55377 17.8747 9.18739 18.2571 9.11778ZM22.3824 16.5656C22.3824 16.9056 22.1392 17.197 21.8048 17.2579L18.5092 17.858C18.4672 17.8656 18.4251 17.8693 18.3832 17.8693C18.2197 17.8693 18.0599 17.8123 17.9324 17.706C17.7721 17.5723 17.6795 17.3744 17.6795 17.1656V12.3954C17.6795 12.0554 17.9226 11.764 18.2571 11.7031L21.5527 11.1031C21.7581 11.0659 21.9693 11.1215 22.1295 11.2551C22.2898 11.3888 22.3824 11.5867 22.3824 11.7954V16.5656Z" fill="white"/>
<path d="M11.4479 5.36841V8.62209L13.5521 9.03285V5.72738L11.4479 5.36841Z" fill="white"/>
<path d="M7.38855 5.32374L0.5 3.43848V19.7838C0.5 20.0536 0.654218 20.2996 0.89703 20.4171L6.42349 23.0924C6.52066 23.1394 6.62547 23.1627 6.73005 23.1627C6.86022 23.1627 6.99002 23.1265 7.10388 23.0552C7.30914 22.9265 7.43374 22.7013 7.43374 22.459V5.57157V5.33611L7.38855 5.32374ZM5.60636 19.2198C5.48487 19.4708 5.2339 19.617 4.97252 19.617C4.86968 19.617 4.76524 19.5943 4.66643 19.5465L2.65414 18.5724C2.3044 18.4031 2.15806 17.9823 2.32742 17.6324C2.49668 17.2826 2.91753 17.1363 3.26731 17.3057L5.27965 18.2798C5.62938 18.4491 5.77572 18.8699 5.60636 19.2198ZM5.60636 16.8723C5.48487 17.1233 5.2339 17.2695 4.97252 17.2695C4.86968 17.2695 4.76524 17.2469 4.66643 17.199L2.65414 16.2249C2.30436 16.0556 2.15806 15.6348 2.32742 15.2849C2.49668 14.9352 2.91753 14.7888 3.26731 14.9582L5.27965 15.9323C5.62943 16.1017 5.77577 16.5225 5.60636 16.8723ZM5.60636 14.5249C5.48487 14.7758 5.23385 14.9221 4.97252 14.9221C4.86963 14.9221 4.76524 14.8994 4.66643 14.8516L2.65414 13.8774C2.30436 13.7081 2.15806 13.2873 2.32742 12.9374C2.49673 12.5877 2.91748 12.4414 3.26735 12.6107L5.27965 13.5849C5.62943 13.7542 5.77577 14.175 5.60636 14.5249Z" fill="white"/>
</g>
<defs>
<clipPath id="clip0_331_440">
<rect width="24" height="24" fill="white" transform="translate(0.5)"/>
</clipPath>
</defs>
</svg>