<svg width="18" height="15" viewBox="0 0 18 15" fill="none" xmlns="http://www.w3.org/2000/svg">
<path d="M17.7105 8.15528C17.7383 8.81984 17.5014 9.46829 17.0517 9.95839C16.602 10.4485 15.9763 10.7402 15.3118 10.7695C15.2729 10.7713 15.2341 10.7722 15.1954 10.7722C15.0189 10.7721 14.8428 10.753 14.6704 10.7152C14.1586 11.5053 13.4876 12.18 12.7002 12.6959C11.9128 13.2119 11.0264 13.5578 10.0977 13.7116C9.98784 14.0343 9.76869 14.3085 9.47812 14.4868C9.18756 14.665 8.84383 14.7362 8.50637 14.6879C8.16891 14.6396 7.85892 14.475 7.62999 14.2224C7.40105 13.9698 7.26756 13.6452 7.25259 13.3046C7.23762 12.964 7.34211 12.629 7.54799 12.3573C7.75388 12.0856 8.04823 11.8943 8.38015 11.8166C8.71207 11.7389 9.06071 11.7796 9.3658 11.9317C9.67089 12.0838 9.91326 12.3377 10.051 12.6496C11.3585 12.4077 12.5397 11.7148 13.3888 10.6914C14.2378 9.66807 14.7008 8.37924 14.6971 7.04955C14.6971 3.90816 12.1414 1.35248 9 1.35248C5.85862 1.35248 3.30293 3.90816 3.30293 7.04955C3.30276 8.02092 3.55101 8.97619 4.02409 9.82457C4.04013 9.85257 4.05216 9.88267 4.05985 9.91401C4.10554 10.041 4.10066 10.1807 4.0462 10.3042C3.99175 10.4277 3.8919 10.5256 3.76731 10.5775C3.46224 10.7059 3.13459 10.772 2.80361 10.772C2.76466 10.772 2.72562 10.7711 2.6865 10.7693C2.02229 10.7396 1.39696 10.4477 0.947621 9.95763C0.498285 9.46757 0.261618 8.81933 0.289515 8.15504C0.30073 7.89013 0.294472 7.65378 0.288355 7.42523C0.28266 7.21004 0.276718 6.9875 0.286492 6.75529C0.31566 6.10668 0.594669 5.49451 1.06508 5.047C1.53549 4.59949 2.16082 4.35136 2.81008 4.35458C3.85267 1.96915 6.23461 0.297791 9 0.297791C11.7654 0.297791 14.1474 1.96915 15.19 4.35461C15.8393 4.35091 16.4648 4.59882 16.9353 5.04634C17.4058 5.49386 17.6847 6.10621 17.7135 6.7549C17.7233 6.98746 17.7174 7.20997 17.7116 7.42516C17.7056 7.65374 17.6993 7.89021 17.7105 8.15528ZM13.4228 7.04955C13.4226 7.72713 13.2667 8.3956 12.9672 9.00341C12.6678 9.61122 12.2327 10.1421 11.6956 10.5552C11.1584 10.9683 10.5336 11.2524 9.86931 11.3858C9.20499 11.5192 8.5189 11.4983 7.86397 11.3245L6.07377 12.3584C5.98345 12.4106 5.87968 12.4348 5.77559 12.4279C5.67151 12.4211 5.57178 12.3836 5.48903 12.3201C5.40628 12.2566 5.34421 12.17 5.31069 12.0712C5.27716 11.9724 5.27368 11.8659 5.30069 11.7652L5.75821 10.0584C5.00053 9.23946 4.57894 8.16525 4.57735 7.04955C4.57735 4.61013 6.56125 2.6257 9 2.6257C11.4388 2.6257 13.4228 4.61013 13.4228 7.04955ZM7.77041 7.04955C7.77041 6.90969 7.71485 6.77556 7.61596 6.67666C7.51706 6.57776 7.38293 6.52221 7.24307 6.52221H7.24219C7.13793 6.5224 7.03608 6.55349 6.94948 6.61156C6.86289 6.66962 6.79545 6.75205 6.75569 6.84842C6.71593 6.9448 6.70563 7.0508 6.72608 7.15303C6.74654 7.25526 6.79685 7.34913 6.87064 7.42278C6.94442 7.49644 7.03839 7.54656 7.14066 7.56683C7.24293 7.5871 7.34891 7.5766 7.44521 7.53666C7.54151 7.49671 7.62381 7.42912 7.68171 7.34242C7.73962 7.25572 7.77052 7.15381 7.77052 7.04955H7.77041ZM9.52745 7.04955C9.52741 7.03229 9.52647 7.01504 9.52464 6.99787C9.52298 6.98064 9.52041 6.9635 9.51694 6.94654C9.51379 6.92964 9.50955 6.91297 9.50425 6.89662C9.49936 6.8801 9.49339 6.86392 9.48706 6.84775C9.48073 6.83158 9.473 6.81646 9.46491 6.80135C9.45688 6.78614 9.44808 6.77136 9.43854 6.75705C9.42893 6.74259 9.41859 6.72863 9.40757 6.71521C9.39674 6.70177 9.38513 6.68898 9.3728 6.67689C9.36085 6.66459 9.34784 6.65299 9.33448 6.64174C9.32109 6.63119 9.30702 6.62064 9.29261 6.61115C9.27831 6.60162 9.26354 6.59282 9.24835 6.58478C9.2332 6.5767 9.21741 6.56931 9.20155 6.56263C9.18572 6.55601 9.16954 6.55026 9.15307 6.54541C9.12019 6.53485 9.08623 6.52801 9.05182 6.52502C9.00017 6.52004 8.94808 6.52253 8.89714 6.5324C8.88018 6.53586 8.86341 6.54021 8.8469 6.54541C8.83042 6.55024 8.81422 6.55599 8.79838 6.56263C8.78256 6.56931 8.76674 6.5767 8.75163 6.58478C8.73651 6.59287 8.72174 6.60166 8.70729 6.61115C8.69284 6.62064 8.67882 6.63119 8.66584 6.64174C8.65213 6.65299 8.63948 6.66459 8.62717 6.67689C8.61483 6.68899 8.6032 6.70178 8.59233 6.71521C8.58145 6.72863 8.57125 6.74259 8.56178 6.75705C8.55212 6.77135 8.5432 6.78613 8.53506 6.80135C8.52695 6.81641 8.51966 6.8319 8.51323 6.84775C8.50656 6.86374 8.50069 6.88005 8.49565 6.89662C8.49077 6.91279 8.48655 6.92967 8.48303 6.94654C8.47956 6.9635 8.47696 6.98064 8.47526 6.99787C8.47354 7.0151 8.4728 7.03232 8.4728 7.04955C8.4728 7.06678 8.47354 7.08435 8.47526 7.10158C8.47699 7.11869 8.47958 7.13571 8.48303 7.15256C8.48655 7.16943 8.49077 7.18631 8.49565 7.20283C8.50069 7.21929 8.50656 7.23548 8.51323 7.25135C8.51966 7.26731 8.52695 7.28292 8.53506 7.2981C8.54311 7.31322 8.55229 7.32799 8.56178 7.3424C8.57125 7.35674 8.58145 7.37059 8.59233 7.38388C8.60329 7.39735 8.61492 7.41026 8.62717 7.42256C8.63948 7.43451 8.65213 7.44646 8.66584 7.45736C8.67906 7.46834 8.6929 7.47855 8.70729 7.48795C8.72174 7.49744 8.73647 7.50658 8.75163 7.51467C8.78216 7.53058 8.81404 7.54376 8.8469 7.55404C8.86339 7.55896 8.88026 7.56318 8.89714 7.5667C8.93103 7.57363 8.96555 7.57705 9.00014 7.57689C9.13984 7.57652 9.27375 7.52106 9.3728 7.42256C9.3971 7.39789 9.41911 7.37106 9.43854 7.3424C9.44804 7.32799 9.45682 7.31322 9.46491 7.2981C9.473 7.28299 9.48038 7.26717 9.48706 7.25135C9.49374 7.23553 9.49936 7.219 9.50425 7.20283C9.50951 7.18635 9.51375 7.16956 9.51694 7.15256C9.52038 7.13571 9.52295 7.11869 9.52464 7.10158C9.52644 7.08427 9.52734 7.06688 9.52735 7.04948L9.52745 7.04955ZM11.2853 7.04955C11.2853 6.90969 11.2297 6.77556 11.1308 6.67666C11.0319 6.57776 10.8978 6.52221 10.7579 6.52221H10.7569C10.6526 6.52241 10.5508 6.55351 10.4642 6.61157C10.3776 6.66964 10.3102 6.75207 10.2704 6.84845C10.2307 6.94483 10.2204 7.05083 10.2408 7.15305C10.2613 7.25528 10.3116 7.34915 10.3854 7.4228C10.4592 7.49644 10.5531 7.54657 10.6554 7.56683C10.7577 7.5871 10.8637 7.5766 10.96 7.53665C11.0563 7.49671 11.1386 7.42912 11.1965 7.34242C11.2544 7.25572 11.2853 7.1538 11.2853 7.04955Z" fill="black"/>
</svg>