<svg width="39" height="32" viewBox="0 0 39 32" fill="none" xmlns="http://www.w3.org/2000/svg">
<path d="M38.8566 17.4562C38.9184 18.933 38.3919 20.374 37.3926 21.4631C36.3933 22.5522 35.0028 23.2004 33.5261 23.2656C33.4398 23.2696 33.3536 23.2716 33.2675 23.2716C32.8752 23.2713 32.484 23.2289 32.1007 23.145C30.9635 24.9008 29.4723 26.3999 27.7226 27.5465C25.9729 28.6931 24.0031 29.4618 21.9392 29.8036C21.6951 30.5207 21.2081 31.13 20.5624 31.5262C19.9167 31.9223 19.1529 32.0804 18.403 31.9732C17.6531 31.8659 16.9642 31.5 16.4555 30.9387C15.9467 30.3774 15.6501 29.656 15.6168 28.8992C15.5835 28.1424 15.8157 27.3977 16.2733 26.7939C16.7308 26.1901 17.3849 25.7652 18.1225 25.5925C18.8601 25.4199 19.6348 25.5104 20.3128 25.8483C20.9908 26.1863 21.5294 26.7505 21.8355 27.4435C24.7411 26.9061 27.366 25.3662 29.2527 23.0921C31.1394 20.818 32.1683 17.9539 32.1601 14.999C32.1601 8.01816 26.4808 2.33887 19.4999 2.33887C12.5191 2.33887 6.83978 8.01816 6.83978 14.999C6.8394 17.1576 7.39108 19.2804 8.44236 21.1657C8.47799 21.228 8.50474 21.2949 8.52182 21.3645C8.62336 21.6467 8.6125 21.9572 8.4915 22.2317C8.37049 22.5061 8.1486 22.7235 7.87174 22.8389C7.19381 23.1243 6.46569 23.2712 5.73017 23.2711C5.64361 23.2711 5.55687 23.2691 5.46994 23.265C3.99391 23.1991 2.60428 22.5504 1.60576 21.4614C0.607231 20.3724 0.0813055 18.9319 0.143299 17.4557C0.168221 16.867 0.154315 16.3418 0.140721 15.8339C0.128065 15.3557 0.114862 14.8611 0.136581 14.3451C0.201399 12.9038 0.821419 11.5434 1.86678 10.5489C2.91214 9.55445 4.30175 9.00305 5.74455 9.0102C8.06142 3.70926 13.3546 -0.00488281 19.4999 -0.00488281C25.6453 -0.00488281 30.9385 3.70926 33.2554 9.01027C34.6984 9.00205 36.0884 9.55297 37.134 10.5475C38.1795 11.5419 38.7993 12.9027 38.8632 14.3443C38.885 14.8611 38.8719 15.3555 38.8591 15.8337C38.8456 16.3417 38.8317 16.8671 38.8566 17.4562ZM29.3285 14.999C29.3279 16.5048 28.9815 17.9903 28.316 19.3409C27.6505 20.6916 26.6837 21.8714 25.4901 22.7894C24.2965 23.7073 22.908 24.3388 21.4317 24.6352C19.9555 24.9316 18.4308 24.885 16.9754 24.499L12.9972 26.7964C12.7965 26.9124 12.5659 26.9662 12.3346 26.951C12.1033 26.9359 11.8817 26.8525 11.6978 26.7114C11.5139 26.5703 11.376 26.3778 11.3015 26.1583C11.227 25.9388 11.2192 25.7021 11.2792 25.4782L12.296 21.6854C10.6122 19.8655 9.67536 17.4784 9.67181 14.999C9.67181 9.57809 14.0805 5.16824 19.4999 5.16824C24.9194 5.16824 29.3285 9.57809 29.3285 14.999ZM16.7675 14.999C16.7675 14.6882 16.6441 14.3902 16.4243 14.1704C16.2045 13.9506 15.9064 13.8271 15.5956 13.8271H15.5937C15.362 13.8276 15.1357 13.8967 14.9432 14.0257C14.7508 14.1547 14.6009 14.3379 14.5126 14.5521C14.4242 14.7662 14.4013 15.0018 14.4468 15.229C14.4923 15.4562 14.604 15.6648 14.768 15.8284C14.932 15.9921 15.1408 16.1035 15.3681 16.1485C15.5953 16.1936 15.8308 16.1702 16.0448 16.0815C16.2588 15.9927 16.4417 15.8425 16.5704 15.6499C16.6991 15.4572 16.7678 15.2307 16.7678 14.999H16.7675ZM20.672 14.999C20.672 14.9607 20.6699 14.9223 20.6658 14.8842C20.6621 14.8459 20.6564 14.8078 20.6487 14.7701C20.6417 14.7326 20.6323 14.6955 20.6205 14.6592C20.6096 14.6225 20.5963 14.5865 20.5823 14.5506C20.5682 14.5146 20.551 14.4811 20.5331 14.4475C20.5152 14.4137 20.4957 14.3808 20.4745 14.349C20.4531 14.3169 20.4301 14.2859 20.4056 14.2561C20.3816 14.2262 20.3558 14.1978 20.3284 14.1709C20.3018 14.1436 20.2729 14.1178 20.2432 14.0928C20.2135 14.0693 20.1822 14.0459 20.1502 14.0248C20.1184 14.0036 20.0856 13.9841 20.0518 13.9662C20.0181 13.9482 19.9831 13.9318 19.9478 13.917C19.9127 13.9023 19.8767 13.8895 19.8401 13.8787C19.767 13.8552 19.6916 13.84 19.6151 13.8334C19.5003 13.8223 19.3846 13.8279 19.2713 13.8498C19.2337 13.8575 19.1964 13.8671 19.1597 13.8787C19.1231 13.8895 19.0871 13.9022 19.0519 13.917C19.0167 13.9318 18.9816 13.9482 18.948 13.9662C18.9144 13.9842 18.8816 14.0037 18.8495 14.0248C18.8174 14.0459 18.7862 14.0693 18.7574 14.0928C18.7269 14.1178 18.6988 14.1436 18.6714 14.1709C18.644 14.1978 18.6182 14.2262 18.594 14.2561C18.5698 14.2859 18.5472 14.3169 18.5261 14.349C18.5046 14.3808 18.4848 14.4136 18.4667 14.4475C18.4487 14.4809 18.4325 14.5154 18.4182 14.5506C18.4034 14.5861 18.3904 14.6223 18.3792 14.6592C18.3683 14.6951 18.3589 14.7326 18.3511 14.7701C18.3434 14.8078 18.3376 14.8459 18.3338 14.8842C18.33 14.9225 18.3284 14.9607 18.3284 14.999C18.3284 15.0373 18.33 15.0764 18.3338 15.1146C18.3377 15.1527 18.3435 15.1905 18.3511 15.2279C18.3589 15.2654 18.3683 15.3029 18.3792 15.3396C18.3904 15.3762 18.4034 15.4122 18.4182 15.4475C18.4325 15.4829 18.4487 15.5176 18.4667 15.5514C18.4846 15.585 18.505 15.6178 18.5261 15.6498C18.5472 15.6817 18.5698 15.7124 18.594 15.742C18.6183 15.7719 18.6442 15.8006 18.6714 15.8279C18.6988 15.8545 18.7269 15.8811 18.7574 15.9053C18.7867 15.9297 18.8175 15.9524 18.8495 15.9732C18.8816 15.9943 18.9143 16.0146 18.948 16.0326C19.0158 16.068 19.0867 16.0973 19.1597 16.1201C19.1963 16.1311 19.2338 16.1404 19.2713 16.1482C19.3467 16.1637 19.4234 16.1712 19.5003 16.1709C19.8107 16.1701 20.1083 16.0468 20.3284 15.8279C20.3824 15.7731 20.4313 15.7135 20.4745 15.6498C20.4956 15.6178 20.5151 15.585 20.5331 15.5514C20.551 15.5178 20.5674 15.4826 20.5823 15.4475C20.5971 15.4123 20.6096 15.3756 20.6205 15.3396C20.6322 15.303 20.6416 15.2657 20.6487 15.2279C20.6563 15.1905 20.662 15.1527 20.6658 15.1146C20.6698 15.0762 20.6718 15.0375 20.6718 14.9989L20.672 14.999ZM24.5783 14.999C24.5783 14.6882 24.4548 14.3902 24.2351 14.1704C24.0153 13.9506 23.7172 13.8271 23.4064 13.8271H23.4042C23.1725 13.8276 22.9461 13.8967 22.7537 14.0257C22.5613 14.1548 22.4115 14.338 22.3231 14.5521C22.2348 14.7663 22.2119 15.0019 22.2573 15.229C22.3028 15.4562 22.4146 15.6648 22.5786 15.8285C22.7426 15.9921 22.9514 16.1035 23.1786 16.1485C23.4059 16.1936 23.6414 16.1702 23.8554 16.0815C24.0694 15.9927 24.2523 15.8425 24.381 15.6498C24.5096 15.4572 24.5783 15.2307 24.5783 14.999Z" fill="white"/>
</svg>