<svg width="41" height="40" viewBox="0 0 41 40" fill="none" xmlns="http://www.w3.org/2000/svg">
<g clip-path="url(#clip0_5_141)">
<path d="M38.2527 1.86152C37.0722 0.681044 35.4831 0 33.7124 0H27.583V2.45176H33.667C34.7567 2.45176 35.7555 2.90579 36.482 3.63224C37.2084 4.35868 37.6625 5.35755 37.6625 6.44722V12.9398H40.1142V6.40182C40.1142 4.6311 39.3878 3.042 38.2527 1.86152Z" fill="white"/>
<path d="M4.51822 36.3223C3.79178 35.5958 3.33775 34.597 3.33775 33.5073V27.0601H0.885986V33.5527C0.885986 35.3234 1.61243 36.9125 2.74751 38.093C3.97339 39.2281 5.56249 39.9545 7.33321 39.9545H13.4172V37.5027H7.33321C6.24353 37.5027 5.24467 37.0487 4.51822 36.3223Z" fill="white"/>
<path d="M37.6171 33.5527C37.6171 34.6424 37.163 35.6412 36.4366 36.3677C35.7101 37.0941 34.7113 37.5481 33.6216 37.5481H27.583V39.9999H33.667C35.4377 39.9999 37.0268 39.2735 38.2073 38.1384C39.3878 36.9579 40.0688 35.3688 40.0688 33.5981V27.0601H37.6171V33.5527Z" fill="white"/>
<path d="M2.79292 1.86152C1.61244 3.042 0.931396 4.6311 0.931396 6.40182V12.8944H3.38316V6.40182C3.38316 5.31215 3.83719 4.31328 4.56363 3.58683C5.29008 2.86039 6.28894 2.40636 7.37862 2.40636H13.4626V0H7.33321C5.5625 0 3.97339 0.726447 2.79292 1.86152Z" fill="white"/>
</g>
<defs>
<clipPath id="clip0_5_141">
<rect width="40" height="40" fill="white" transform="translate(0.5)"/>
</clipPath>
</defs>
</svg>