<svg width="25" height="24" viewBox="0 0 25 24" fill="none" xmlns="http://www.w3.org/2000/svg">
<g clip-path="url(#clip0_331_563)">
<path d="M12.329 11.5609C13.9172 11.5609 15.2925 10.9912 16.4163 9.86733C17.54 8.74362 18.1096 7.36868 18.1096 5.78025C18.1096 4.19237 17.54 2.81725 16.4161 1.69317C15.2922 0.569639 13.9171 0 12.329 0C10.7405 0 9.3656 0.569639 8.24188 1.69335C7.11816 2.81707 6.54834 4.19218 6.54834 5.78025C6.54834 7.36868 7.11816 8.7438 8.24207 9.86751C9.36597 10.991 10.7411 11.5609 12.329 11.5609Z" fill="white"/>
<path d="M22.4435 18.4546C22.4111 17.987 22.3456 17.4768 22.2491 16.9382C22.1517 16.3954 22.0262 15.8824 21.8761 15.4134C21.721 14.9288 21.5101 14.4501 21.2493 13.9914C20.9787 13.5154 20.6608 13.1008 20.3041 12.7597C19.9312 12.4028 19.4745 12.1159 18.9464 11.9066C18.4202 11.6984 17.837 11.593 17.2131 11.593C16.9681 11.593 16.7312 11.6935 16.2736 11.9914C15.992 12.175 15.6626 12.3874 15.2949 12.6224C14.9805 12.8227 14.5546 13.0104 14.0286 13.1803C13.5153 13.3464 12.9942 13.4306 12.4799 13.4306C11.9655 13.4306 11.4446 13.3464 10.9308 13.1803C10.4053 13.0106 9.97937 12.8229 9.66534 12.6226C9.30115 12.3898 8.97156 12.1774 8.68573 11.9912C8.2287 11.6933 7.99158 11.5928 7.74658 11.5928C7.12256 11.5928 6.53955 11.6984 6.01349 11.9068C5.48578 12.1157 5.02893 12.4026 4.65558 12.7599C4.29907 13.1012 3.98102 13.5156 3.71075 13.9914C3.4502 14.4501 3.23926 14.9286 3.08398 15.4136C2.93402 15.8826 2.80859 16.3954 2.71118 16.9382C2.61469 17.4761 2.54913 17.9864 2.51672 18.4552C2.48486 18.9144 2.46875 19.391 2.46875 19.8724C2.46875 21.1252 2.867 22.1394 3.65234 22.8874C4.42798 23.6255 5.45428 24 6.70233 24H18.2585C19.5065 24 20.5325 23.6257 21.3083 22.8874C22.0938 22.14 22.4921 21.1256 22.4921 19.8722C22.4919 19.3886 22.4756 18.9117 22.4435 18.4546Z" fill="white"/>
</g>
<defs>
<clipPath id="clip0_331_563">
<rect width="24" height="24" fill="white" transform="translate(0.5)"/>
</clipPath>
</defs>
</svg>