<svg width="41" height="40" viewBox="0 0 41 40" fill="none" xmlns="http://www.w3.org/2000/svg">
<g clip-path="url(#clip0_5_159)">
<path d="M40.4625 13.4475L38.2 4.3925C37.9225 3.28 36.9225 2.5 35.775 2.5H5.2275C4.08 2.5 3.08 3.28 2.8 4.3925L0.5375 13.4475C0.5125 13.545 0.5 13.6475 0.5 13.75C0.5 17.195 3.1625 20 6.4375 20C8.34 20 10.0375 19.0525 11.125 17.5825C12.2125 19.0525 13.91 20 15.8125 20C17.715 20 19.4125 19.0525 20.5 17.5825C21.5875 19.0525 23.2825 20 25.1875 20C27.0925 20 28.7875 19.0525 29.875 17.5825C30.9625 19.0525 32.6575 20 34.5625 20C37.8375 20 40.5 17.195 40.5 13.75C40.5 13.6475 40.4875 13.545 40.4625 13.4475Z" fill="white"/>
<path d="M34.5625 22.5C32.86 22.5 31.2425 21.98 29.875 21.03C27.14 22.9325 23.235 22.9325 20.5 21.03C17.765 22.9325 13.86 22.9325 11.125 21.03C9.7575 21.98 8.14 22.5 6.4375 22.5C5.21 22.5 4.0525 22.2125 3 21.7225V35C3 36.38 4.12 37.5 5.5 37.5H15.5V27.5H25.5V37.5H35.5C36.88 37.5 38 36.38 38 35V21.7225C36.9475 22.2125 35.79 22.5 34.5625 22.5Z" fill="white"/>
</g>
<defs>
<clipPath id="clip0_5_159">
<rect width="40" height="40" fill="white" transform="translate(0.5)"/>
</clipPath>
</defs>
</svg>